<svg width="12.750000" height="11.699951" viewBox="0 0 12.75 11.7" fill="none" xmlns="http://www.w3.org/2000/svg" xmlns:xlink="http://www.w3.org/1999/xlink">
	<desc>
			Created with Pixso.
	</desc>
	<defs/>
	<path d="M11.7141 1.16016C11.0451 0.411865 10.1557 0 9.20959 0C8.26331 0 7.46924 0.411865 6.79999 1.16016L6.37497 1.83911L5.95001 1.16016C5.28098 0.411865 4.48663 0 3.54056 0C2.59454 0 1.70483 0.411865 1.03586 1.16016C-0.345276 2.70557 -0.345276 5.21973 1.03586 6.76416L5.98492 11.5208C6.06583 11.6116 6.16656 11.6672 6.27182 11.6885C6.3071 11.6963 6.34262 11.7 6.37817 11.7C6.51819 11.7 6.65842 11.6404 6.76505 11.5208L11.7141 6.76416C13.0953 5.21973 13.0953 2.70557 11.7141 1.16016Z" fill="#BCBFC2" fill-opacity="1.000000" fill-rule="evenodd"/>
</svg>
